<svg width="158" height="60" viewBox="0 0 158 60" fill="none" xmlns="http://www.w3.org/2000/svg">
<g filter="url(#filter0_d)">
<g filter="url(#filter1_d)">
<path d="M12.25 8.25L20.5 0H154V52H4V16.5L12.25 8.25Z" fill="black"/>
<path d="M6.5 49.5V17.5355L14.0178 10.0178L21.5355 2.5H151.5V49.5H6.5Z" stroke="black" stroke-width="5"/>
</g>
<path d="M41.7329 35V17.25H45.4579V31.7H52.7079V35H41.7329ZM63.2724 35.5C62.2224 35.5 61.2307 35.35 60.2974 35.05C59.364 34.75 58.514 34.325 57.7474 33.775C56.9974 33.2083 56.3474 32.5417 55.7974 31.775C55.264 30.9917 54.8474 30.125 54.5474 29.175C54.2474 28.225 54.0974 27.2167 54.0974 26.15C54.0974 25.0833 54.2474 24.075 54.5474 23.125C54.8474 22.1583 55.2724 21.2917 55.8224 20.525C56.3724 19.7417 57.0224 19.075 57.7724 18.525C58.539 17.9583 59.389 17.525 60.3224 17.225C61.2557 16.9083 62.2557 16.75 63.3224 16.75C64.3724 16.75 65.364 16.9 66.2974 17.2C67.2307 17.5 68.0724 17.9333 68.8224 18.5C69.589 19.05 70.239 19.7167 70.7724 20.5C71.3224 21.2667 71.7474 22.125 72.0474 23.075C72.3474 24.025 72.4974 25.0333 72.4974 26.1C72.4974 27.1667 72.3474 28.1833 72.0474 29.15C71.7474 30.1 71.3224 30.9667 70.7724 31.75C70.2224 32.5167 69.564 33.1833 68.7974 33.75C68.0474 34.3 67.2057 34.725 66.2724 35.025C65.339 35.3417 64.339 35.5 63.2724 35.5ZM63.2974 32.075C64.064 32.075 64.7724 31.9333 65.4224 31.65C66.089 31.35 66.6557 30.9333 67.1224 30.4C67.6057 29.8667 67.9807 29.2417 68.2474 28.525C68.514 27.7917 68.6474 26.9917 68.6474 26.125C68.6474 25.2583 68.514 24.4667 68.2474 23.75C67.9807 23.0167 67.6057 22.3833 67.1224 21.85C66.6557 21.3167 66.089 20.9083 65.4224 20.625C64.7724 20.325 64.064 20.175 63.2974 20.175C62.5307 20.175 61.814 20.325 61.1474 20.625C60.4974 20.9083 59.9307 21.3167 59.4474 21.85C58.9807 22.3833 58.614 23.0167 58.3474 23.75C58.0807 24.4667 57.9474 25.2583 57.9474 26.125C57.9474 26.9917 58.0807 27.7917 58.3474 28.525C58.614 29.2417 58.9807 29.8667 59.4474 30.4C59.9307 30.9333 60.4974 31.35 61.1474 31.65C61.814 31.9333 62.5307 32.075 63.2974 32.075ZM83.9505 35.5C82.9005 35.5 81.9088 35.35 80.9755 35.05C80.0588 34.75 79.2172 34.325 78.4505 33.775C77.7005 33.2083 77.0505 32.5417 76.5005 31.775C75.9672 31.0083 75.5505 30.1583 75.2505 29.225C74.9505 28.275 74.8005 27.2583 74.8005 26.175C74.8005 25.0917 74.9505 24.075 75.2505 23.125C75.5505 22.175 75.9755 21.3083 76.5255 20.525C77.0755 19.7417 77.7338 19.075 78.5005 18.525C79.2672 17.9583 80.1088 17.525 81.0255 17.225C81.9588 16.9083 82.9505 16.75 84.0005 16.75C85.1838 16.75 86.2838 16.9417 87.3005 17.325C88.3172 17.7083 89.2088 18.2583 89.9755 18.975C90.7588 19.6917 91.3672 20.5583 91.8005 21.575L88.2005 22.675C87.7505 21.875 87.1672 21.2583 86.4505 20.825C85.7505 20.3917 84.9338 20.175 84.0005 20.175C83.2338 20.175 82.5255 20.325 81.8755 20.625C81.2255 20.9083 80.6588 21.325 80.1755 21.875C79.6922 22.4083 79.3172 23.0333 79.0505 23.75C78.7838 24.4667 78.6505 25.25 78.6505 26.1C78.6505 26.9667 78.7838 27.7667 79.0505 28.5C79.3172 29.2333 79.6922 29.8667 80.1755 30.4C80.6755 30.9333 81.2588 31.35 81.9255 31.65C82.5922 31.9333 83.3255 32.075 84.1255 32.075C84.9755 32.075 85.7338 31.9167 86.4005 31.6C87.0672 31.2833 87.6088 30.8417 88.0255 30.275C88.4422 29.7083 88.7005 29.0417 88.8005 28.275H84.3755V25.2H92.6255V27.075C92.6255 28.3083 92.4088 29.4417 91.9755 30.475C91.5588 31.5083 90.9672 32.4 90.2005 33.15C89.4338 33.9 88.5172 34.4833 87.4505 34.9C86.3838 35.3 85.2172 35.5 83.9505 35.5ZM95.2241 35V17.25H98.9491V35H95.2241ZM102.207 35V17.25H105.432L113.657 29V17.25H117.257V35H114.032L105.807 23.25V35H102.207Z" fill="white"/>
</g>
<defs>
<filter id="filter0_d" x="0" y="0" width="158" height="60" filterUnits="userSpaceOnUse" color-interpolation-filters="sRGB">
<feFlood flood-opacity="0" result="BackgroundImageFix"/>
<feColorMatrix in="SourceAlpha" type="matrix" values="0 0 0 0 0 0 0 0 0 0 0 0 0 0 0 0 0 0 127 0"/>
<feOffset dy="4"/>
<feGaussianBlur stdDeviation="2"/>
<feColorMatrix type="matrix" values="0 0 0 0 0 0 0 0 0 0 0 0 0 0 0 0 0 0 0.25 0"/>
<feBlend mode="normal" in2="BackgroundImageFix" result="effect1_dropShadow"/>
<feBlend mode="normal" in="SourceGraphic" in2="effect1_dropShadow" result="shape"/>
</filter>
<filter id="filter1_d" x="0" y="0" width="158" height="60" filterUnits="userSpaceOnUse" color-interpolation-filters="sRGB">
<feFlood flood-opacity="0" result="BackgroundImageFix"/>
<feColorMatrix in="SourceAlpha" type="matrix" values="0 0 0 0 0 0 0 0 0 0 0 0 0 0 0 0 0 0 127 0"/>
<feOffset dy="4"/>
<feGaussianBlur stdDeviation="2"/>
<feColorMatrix type="matrix" values="0 0 0 0 0 0 0 0 0 0 0 0 0 0 0 0 0 0 0.25 0"/>
<feBlend mode="normal" in2="BackgroundImageFix" result="effect1_dropShadow"/>
<feBlend mode="normal" in="SourceGraphic" in2="effect1_dropShadow" result="shape"/>
</filter>
</defs>
</svg>
