<svg width="360" height="1024" viewBox="0 0 360 1024" fill="none" xmlns="http://www.w3.org/2000/svg">
<rect width="360" height="1024" fill="#DCDCDC"/>
<rect y="462" width="360" height="60" fill="white"/>
<rect y="147" width="360" height="129" fill="#EAEAEA"/>
<rect y="309" width="360" height="60" fill="#EAEAEA"/>
<rect y="399" width="360" height="60" fill="#EAEAEA"/>
<rect y="525" width="360" height="60" fill="#EAEAEA"/>
<rect y="588" width="360" height="60" fill="#EAEAEA"/>
<rect y="651" width="360" height="60" fill="#EAEAEA"/>
<rect y="714" width="360" height="60" fill="#EAEAEA"/>
<rect y="777" width="360" height="60" fill="#EAEAEA"/>
<rect y="968" width="360" height="56" fill="#6B6B6B"/>
<path d="M107.138 88L110.507 66.7012H114.403L123.939 66.7305L123.28 70.627L113.773 70.5977L112.997 75.6953L121.054 75.7246L120.424 79.4746L112.396 79.4453L111.034 88H107.138ZM124.481 88L127.851 66.7012H131.806L136.903 66.7305C139.267 66.7598 141.015 67.3408 142.147 68.4736C142.987 69.3135 143.407 70.4707 143.407 71.9453C143.407 72.9609 143.202 73.9619 142.792 74.9482C142.382 75.9346 141.82 76.7451 141.107 77.3799C140.238 78.1611 139.315 78.7617 138.339 79.1816L140.932 88H136.479L134.296 79.8408H129.74L128.451 88H124.481ZM130.312 76.2373H135.16C136.518 76.2373 137.509 75.8662 138.134 75.124C138.651 74.4893 138.91 73.7324 138.91 72.8535C138.91 72.1602 138.729 71.6182 138.368 71.2275C137.929 70.7295 137.162 70.4805 136.068 70.4805L131.205 70.4512L130.312 76.2373ZM144.081 88L147.45 66.7012H151.347L147.978 88H144.081ZM153.075 78.9766C153.075 78.3223 153.114 77.7803 153.192 77.3506C153.368 75.8857 153.842 74.4648 154.613 73.0879C155.395 71.7109 156.342 70.5244 157.455 69.5283C158.568 68.5225 159.833 67.7217 161.249 67.126C162.597 66.5596 163.939 66.2764 165.277 66.2764C165.346 66.2764 165.409 66.2764 165.468 66.2764C165.526 66.2764 165.585 66.2764 165.644 66.2764C168.319 66.2764 170.268 66.96 171.488 68.3271C172.699 69.6553 173.51 71.042 173.92 72.4873L169.73 73.9668C169.486 72.9414 168.92 72.0967 168.031 71.4326C167.152 70.7588 166.098 70.4219 164.867 70.4219C163.051 70.4219 161.444 71.0859 160.048 72.4141C158.651 73.7324 157.816 75.3779 157.543 77.3506C157.484 77.7705 157.455 78.1611 157.455 78.5225C157.455 80.1826 157.953 81.54 158.949 82.5947C159.975 83.6201 161.308 84.1328 162.948 84.1328C164.208 84.1328 165.399 83.8154 166.522 83.1807C167.655 82.5459 168.534 81.7207 169.159 80.7051L172.851 82.5654C171.806 84.3525 170.336 85.7734 168.441 86.8281C166.557 87.8535 164.525 88.3662 162.348 88.3662C162.299 88.3662 162.25 88.3662 162.201 88.3662C160.971 88.3662 159.799 88.1318 158.686 87.6631C157.533 87.1748 156.542 86.5107 155.712 85.6709C154.882 84.8408 154.232 83.8398 153.764 82.668C153.305 81.5449 153.075 80.3633 153.075 79.123C153.075 79.0742 153.075 79.0254 153.075 78.9766ZM174.477 70.627L175.048 66.7012H191.703L191.132 70.627H184.774L182.343 88H178.417L180.834 70.627H174.477ZM191.601 88L194.97 66.7012H198.866L195.497 88H191.601ZM200.595 79.1523C200.595 78.4688 200.634 77.8877 200.712 77.4092C200.897 75.8857 201.356 74.4307 202.089 73.0439C202.831 71.6572 203.744 70.4609 204.828 69.4551C205.922 68.459 207.162 67.6729 208.549 67.0967C209.877 66.5498 211.225 66.2764 212.592 66.2764C212.66 66.2764 212.729 66.2764 212.797 66.2764C214.584 66.2764 216.176 66.6768 217.572 67.4775C218.969 68.2686 220.053 69.377 220.824 70.8027C221.596 72.2285 221.981 73.8496 221.981 75.666C221.981 76.3496 221.942 76.9307 221.864 77.4092C221.669 78.9521 221.205 80.4121 220.473 81.7891C219.74 83.1562 218.832 84.3232 217.748 85.29C216.664 86.2568 215.424 87.0186 214.027 87.5752C212.699 88.1025 211.337 88.3662 209.94 88.3662C209.862 88.3662 209.789 88.3662 209.721 88.3662C207.982 88.3662 206.415 87.9707 205.019 87.1797C203.622 86.3789 202.533 85.2803 201.752 83.8838C200.98 82.4775 200.595 80.9004 200.595 79.1523ZM205.004 78.7275C205.004 80.3975 205.482 81.7256 206.439 82.7119C207.396 83.6982 208.69 84.1914 210.321 84.1914C212.245 84.1914 213.842 83.5908 215.111 82.3896C216.391 81.1787 217.182 79.5186 217.484 77.4092C217.543 76.9209 217.572 76.4717 217.572 76.0615C217.572 74.3232 217.094 72.9561 216.137 71.96C215.189 70.9541 213.881 70.4512 212.211 70.4512C210.375 70.4512 208.798 71.0957 207.479 72.3848C206.161 73.6738 205.365 75.3486 205.092 77.4092C205.033 77.8682 205.004 78.3076 205.004 78.7275ZM223.593 88L226.947 66.7012H230.858L238.505 81.3643L240.819 66.7012H244.716L241.347 88H237.45L229.804 73.3369L227.489 88H223.593Z" fill="#1E233E"/>
<rect x="31" y="167" width="283" height="25" rx="7" fill="#DADADA"/>
<rect x="31" y="217" width="228" height="16" rx="7" fill="#DADADA"/>
<rect x="31" y="243" width="228" height="16" rx="7" fill="#DADADA"/>
<rect x="31" y="330" width="228" height="16" rx="7" fill="#DADADA"/>
<rect x="31" y="422" width="124" height="16" rx="7" fill="#DADADA"/>
<rect x="31" y="484" width="124" height="16" rx="7" fill="#DADADA"/>
<rect x="31" y="546" width="124" height="16" rx="7" fill="#DADADA"/>
<rect x="31" y="608" width="124" height="16" rx="7" fill="#DADADA"/>
<rect x="31" y="670" width="124" height="16" rx="7" fill="#DADADA"/>
<rect x="31" y="732" width="124" height="16" rx="7" fill="#DADADA"/>
<rect x="31" y="794" width="124" height="16" rx="7" fill="#DADADA"/>
<rect x="31" y="990" width="124" height="16" rx="7" fill="#545454"/>
</svg>
